<?xml version="1.0" standalone="no"?>
<!DOCTYPE svg PUBLIC "-//W3C//DTD SVG 20010904//EN"
 "http://www.w3.org/TR/2001/REC-SVG-20010904/DTD/svg10.dtd">
 <svg version="1.0" xmlns="http://www.w3.org/2000/svg"  width="300.000000pt" height="248.000000pt" viewBox="0 0 300.000000 248.000000"  preserveAspectRatio="xMidYMid meet">  <g transform="translate(0.000000,248.000000) scale(0.100000,-0.100000)" fill="#000000" stroke="none"> <path d="M2758 2441 c-12 -16 -31 -42 -40 -59 l-17 -31 -38 15 c-26 11 -55 15 -95 11 -51 -4 -59 -2 -80 20 -21 22 -28 24 -78 18 -30 -4 -68 -14 -85 -22 -37 -20 -137 -96 -172 -131 -51 -54 -86 -169 -64 -210 10 -19 4 -34 -44 -111 -31 -50 -92 -140 -136 -202 -44 -61 -92 -129 -106 -152 -34 -54 -112 -137 -130 -137 -24 0 -54 -61 -48 -98 5 -27 -2 -52 -35 -119 -25 -49 -40 -93 -37 -105 8 -28 -20 -34 -60 -13 l-34 18 -29 -34 c-24 -28 -31 -31 -39 -19 -5 8 -7 27 -4 44 4 19 2 27 -4 23 -6 -4 -13 -20 -16 -36 -6 -31 -51 -90 -61 -80 -3 3 -1 20 5 38 21 60 -30 158 -78 149 -15 -3 -18 -14 -21 -71 -3 -64 -1 -69 27 -98 17 -16 28 -36 25 -43 -9 -24 -65 -46 -87 -34 -10 5 -21 7 -25 4 -8 -9 1 -15 35 -22 26 -5 37 0 71 30 21 20 47 36 55 36 9 0 26 13 38 30 21 27 23 28 36 12 12 -16 15 -14 44 17 31 34 31 34 60 17 28 -17 69 -14 69 4 0 4 9 6 20 3 11 -3 25 -3 32 0 7 2 15 5 18 5 3 0 29 12 58 27 28 14 78 31 110 37 80 15 82 16 82 33 0 21 67 81 120 106 25 12 63 34 85 49 63 44 244 152 315 189 201 106 388 270 448 394 30 61 33 74 30 140 -2 40 -7 79 -11 88 -6 12 2 19 34 29 70 23 89 44 89 99 0 86 -82 171 -167 171 -33 0 -46 -5 -65 -29z m99 8 c61 -22 123 -102 123 -157 0 -38 -21 -54 -69 -54 -32 1 -56 -10 -121 -54 -87 -58 -101 -59 -134 -12 -23 33 -19 58 15 103 l30 40 -37 3 c-20 2 -42 -2 -48 -9 -8 -9 -2 -10 28 -5 l38 7 -32 -45 c-30 -42 -32 -47 -20 -76 26 -63 85 -86 131 -52 33 24 67 42 78 42 15 0 32 -99 25 -139 -14 -75 -64 -154 -158 -247 -93 -93 -167 -146 -337 -240 -131 -74 -176 -71 -268 15 -24 22 -46 39 -48 38 -7 -7 38 -56 57 -62 11 -4 20 -10 20 -14 0 -4 -44 -40 -97 -81 -135 -103 -171 -137 -210 -198 -39 -60 -51 -61 -112 -13 -64 50 -92 143 -53 176 9 8 37 32 61 52 58 50 287 365 361 499 69 122 216 271 333 338 81 45 93 65 17 26 l-39 -20 -17 37 c-10 20 -20 31 -22 25 -2 -6 4 -24 12 -40 19 -36 14 -42 -30 -35 -46 8 -102 -30 -149 -99 -33 -49 -34 -53 -15 -56 26 -4 26 -6 -12 -52 -41 -49 -58 -51 -58 -7 0 93 55 174 174 254 60 41 87 53 133 59 52 6 58 5 77 -17 19 -21 28 -24 82 -21 40 2 74 -2 99 -12 20 -9 39 -16 40 -16 2 0 15 21 30 46 48 83 67 94 122 73z m-538 -186 c-13 -10 -43 -35 -66 -56 -24 -22 -43 -35 -43 -30 0 17 64 82 95 97 37 19 47 11 14 -11z m-121 -785 c10 -9 8 -13 -7 -22 -11 -6 -51 -32 -89 -58 -38 -27 -74 -48 -81 -48 -24 0 -129 -80 -151 -115 -12 -19 -28 -35 -36 -35 -20 0 -18 8 13 49 43 57 91 101 193 179 97 74 120 81 158 50z m-471 -268 l31 -17 -65 -32 c-59 -29 -67 -31 -82 -16 -23 19 -37 20 -21 0 15 -18 7 -30 -14 -22 -16 6 -11 47 6 47 5 0 6 4 3 10 -3 5 5 29 19 53 15 24 26 52 26 61 0 12 11 3 33 -25 17 -23 46 -50 64 -59z m-446 -32 c15 -25 19 -45 16 -85 -4 -63 -8 -69 -36 -51 -24 15 -41 57 -41 104 0 71 27 85 61 32z"></path> <path d="M2760 2375 c0 -34 70 -125 97 -125 8 0 -2 14 -21 30 -18 17 -43 49 -54 73 -14 28 -21 35 -22 22z"></path> <path d="M2560 2212 c0 -58 38 -119 90 -144 21 -10 28 -18 20 -23 -7 -4 -31 6 -56 24 -24 17 -44 26 -44 21 0 -26 102 -71 114 -51 4 6 12 11 17 11 6 0 7 -5 3 -12 -11 -17 56 -1 79 20 11 9 26 31 33 49 17 39 17 43 4 43 -5 0 -10 -9 -10 -21 0 -26 -52 -79 -77 -79 -36 1 -101 39 -129 76 -23 29 -29 48 -29 86 0 26 -3 48 -7 48 -5 0 -8 -22 -8 -48z"></path> <path d="M305 2226 c-170 -69 -258 -111 -280 -136 -14 -16 -18 -34 -16 -91 2 -63 6 -78 38 -127 139 -219 276 -550 543 -1322 122 -351 159 -451 176 -477 17 -27 58 -49 113 -62 57 -12 52 4 -7 23 -84 28 -98 53 -192 336 -18 52 -36 104 -41 115 -4 11 -17 47 -28 80 -107 324 -273 769 -345 927 -14 31 -26 59 -26 63 0 9 -107 224 -132 265 -12 19 -26 44 -32 55 -6 11 -19 31 -28 45 -9 14 -18 51 -20 84 -3 58 -2 60 31 83 39 26 60 30 41 8 -8 -9 -10 -27 -6 -47 3 -18 7 -39 8 -45 1 -7 3 -11 6 -9 5 6 95 -174 95 -191 0 -7 3 -10 7 -8 3 2 12 -11 19 -28 14 -31 144 -294 174 -351 9 -16 13 -34 10 -40 -3 -6 -2 -8 2 -3 5 4 18 -14 29 -41 56 -130 503 -1011 519 -1021 14 -9 42 -1 150 44 172 73 379 153 442 170 28 8 97 30 155 50 58 19 110 33 117 30 7 -2 13 -1 13 4 0 4 19 13 43 19 23 6 87 22 142 37 55 14 111 28 125 30 14 3 41 8 60 11 19 4 40 10 45 14 9 6 45 14 125 27 14 2 53 9 88 15 54 10 65 10 78 -4 19 -19 24 -72 11 -110 -11 -33 -5 -30 -87 -34 -65 -2 -118 -8 -175 -18 -16 -3 -46 -7 -65 -10 -19 -2 -82 -16 -140 -31 -58 -14 -113 -28 -123 -30 -10 -2 -43 -13 -74 -25 -30 -11 -58 -18 -63 -15 -5 3 -10 1 -12 -3 -1 -5 -37 -21 -78 -36 -41 -15 -88 -34 -105 -41 -246 -112 -334 -155 -340 -165 -4 -6 -11 -8 -16 -5 -5 4 -9 2 -9 -2 0 -5 -17 -17 -37 -28 -77 -41 -218 -128 -221 -136 -2 -5 -8 -9 -14 -9 -5 0 -16 -7 -24 -15 -8 -8 -23 -19 -32 -24 -9 -5 -14 -12 -10 -16 8 -9 27 2 185 101 128 81 340 192 503 264 278 122 577 199 834 216 70 5 110 12 117 21 7 7 14 44 16 81 5 62 3 69 -20 90 l-25 23 -118 -21 c-411 -73 -1104 -289 -1386 -431 -33 -17 -62 -29 -64 -27 -18 19 -864 1745 -860 1755 8 20 163 91 391 178 19 7 19 8 -5 15 -43 14 -62 9 -195 -44z"></path> <path d="M735 1724 c-16 -10 -29 -11 -59 -3 -47 13 -66 6 -66 -24 0 -26 -16 -50 -45 -65 -20 -11 -19 -11 2 -12 26 0 53 35 53 68 0 24 2 24 56 17 37 -4 60 -3 69 5 8 7 26 9 39 6 25 -6 56 1 56 13 0 12 -85 8 -105 -5z"></path> <path d="M1205 1680 c-4 -6 -11 -36 -16 -68 -5 -31 -13 -77 -18 -102 -6 -25 -10 -66 -11 -92 0 -27 -4 -48 -8 -48 -4 0 -26 18 -47 40 -21 22 -45 40 -51 40 -7 0 -25 -18 -41 -40 -19 -27 -35 -40 -52 -40 -14 0 -38 -12 -54 -27 -17 -16 -31 -23 -34 -17 -2 6 -10 19 -17 29 -11 16 -16 13 -46 -36 -49 -80 -61 -85 -90 -36 -36 58 -19 167 28 182 22 6 52 -3 52 -16 0 -5 5 -9 10 -9 19 0 10 20 -14 31 -39 18 -73 3 -96 -41 -24 -47 -25 -90 -4 -136 34 -71 77 -71 115 1 25 47 36 55 45 30 9 -23 38 -18 64 10 15 16 30 23 41 20 12 -4 28 8 54 39 l37 45 53 -46 c41 -36 54 -56 59 -84 3 -20 13 -42 21 -49 26 -21 29 14 6 66 -18 41 -21 59 -15 123 7 77 23 132 24 80 0 -14 8 -33 18 -43 18 -15 21 -15 45 4 14 11 33 20 43 20 10 0 33 14 50 31 l33 32 27 -22 c29 -23 69 -28 80 -10 5 9 -1 10 -20 5 -20 -5 -32 -1 -52 19 -14 14 -28 25 -33 25 -4 0 -20 -13 -36 -30 -16 -16 -38 -30 -50 -30 -12 0 -30 -9 -40 -20 -23 -25 -32 -25 -46 1 -13 25 -18 129 -5 121 5 -3 7 5 4 16 -4 12 -2 20 3 16 5 -3 9 -1 9 5 0 15 -18 23 -25 11z m-12 -386 c5 -30 -8 -20 -18 15 -4 15 -3 21 3 17 5 -3 12 -17 15 -32z"></path> <path d="M1370 1270 c0 -5 5 -10 11 -10 5 0 7 5 4 10 -3 6 -8 10 -11 10 -2 0 -4 -4 -4 -10z"></path> <path d="M920 1114 c0 -6 23 -49 51 -95 l51 -84 -16 -66 c-23 -98 -21 -145 9 -174 31 -32 59 -32 91 1 20 19 24 31 19 52 -9 38 -74 176 -80 170 -3 -3 11 -39 30 -81 25 -51 35 -86 33 -109 -3 -30 -6 -33 -39 -36 -48 -4 -64 16 -63 83 1 61 36 179 63 214 23 30 47 23 56 -18 4 -17 11 -34 17 -37 7 -5 9 2 4 22 -9 35 -33 74 -46 74 -12 0 -39 -26 -60 -58 -15 -22 -16 -21 -55 48 -49 86 -64 108 -65 94z"></path> <path d="M2118 643 c7 -3 16 -2 19 1 4 3 -2 6 -13 5 -11 0 -14 -3 -6 -6z"></path> <path d="M2036 633 c-3 -4 -17 -8 -29 -10 -12 -2 -31 -7 -42 -12 -11 -4 -78 -27 -150 -51 -125 -41 -211 -77 -203 -85 2 -2 51 14 108 36 58 22 164 58 235 80 161 49 156 47 119 48 -17 1 -34 -2 -38 -6z"></path> <path d="M2023 600 c-159 -47 -384 -128 -398 -142 -12 -13 9 -8 83 20 28 11 52 18 52 15 0 -3 6 -1 13 5 6 5 59 24 117 42 58 17 114 36 125 41 11 4 45 16 75 25 30 9 59 21 65 25 12 12 19 13 -132 -31z"></path> </g> </svg> 