<svg id="svg" version="1.1" xmlns="http://www.w3.org/2000/svg" xmlns:xlink="http://www.w3.org/1999/xlink" width="400" height="330.4495335029686" viewBox="0, 0, 400,330.4495335029686"><g id="svgg"><path id="path0" d="M372.893 0.470 C 369.038 1.571,368.121 2.493,364.009 9.404 C 362.313 12.253,360.606 14.949,360.215 15.395 L 359.504 16.205 356.529 15.078 C 351.015 12.989,341.116 12.213,336.860 13.535 L 335.702 13.895 332.397 10.416 C 328.642 6.466,328.859 6.544,324.132 7.449 C 322.678 7.727,319.437 8.314,316.930 8.754 C 311.957 9.625,311.717 9.730,305.124 13.897 C 289.455 23.801,280.738 33.513,278.138 43.967 C 277.155 47.915,277.243 56.791,278.284 58.906 L 279.048 60.457 277.103 63.534 C 276.034 65.227,274.662 67.504,274.055 68.595 C 273.448 69.686,272.343 71.528,271.599 72.689 C 262.067 87.572,255.803 96.501,250.933 102.149 C 250.384 102.785,249.931 103.441,249.926 103.605 C 249.921 103.770,249.545 104.392,249.091 104.988 C 248.636 105.584,248.264 106.166,248.264 106.281 C 248.264 106.395,246.683 108.600,244.750 111.179 C 242.817 113.758,241.050 116.391,240.825 117.029 C 240.599 117.668,239.950 118.925,239.381 119.821 C 238.812 120.718,238.347 121.592,238.347 121.762 C 238.347 122.161,233.846 127.762,231.622 130.131 C 228.197 133.780,224.186 137.106,222.927 137.343 C 218.526 138.168,215.355 145.295,216.511 151.764 C 217.201 155.622,213.731 164.167,209.352 169.395 C 208.701 170.172,208.584 170.583,208.756 171.497 C 208.919 172.366,208.754 173.069,208.052 174.498 C 206.668 177.313,206.804 183.986,208.240 183.729 C 208.344 183.710,208.876 183.893,209.421 184.135 C 211.154 184.904,214.265 184.702,216.206 183.695 C 217.172 183.194,218.452 182.810,219.158 182.810 C 219.948 182.810,220.858 182.502,221.644 181.968 C 227.205 178.195,232.182 176.617,248.384 173.491 C 250.633 173.057,251.567 171.978,251.569 169.810 C 251.571 168.088,258.034 161.485,261.488 159.676 C 261.942 159.438,262.878 158.801,263.566 158.262 C 264.255 157.722,266.114 156.838,267.698 156.297 C 269.282 155.757,270.813 155.104,271.100 154.847 C 271.387 154.590,271.775 154.380,271.961 154.380 C 272.148 154.380,272.701 154.008,273.192 153.554 C 273.682 153.099,274.368 152.727,274.716 152.727 C 275.064 152.727,275.499 152.445,275.684 152.101 C 275.868 151.756,276.469 151.318,277.018 151.126 C 277.567 150.935,278.017 150.650,278.017 150.493 C 278.017 150.337,279.585 149.250,281.503 148.079 C 285.234 145.801,285.484 145.643,288.465 143.669 C 289.537 142.959,290.871 142.187,291.431 141.952 C 291.991 141.718,292.642 141.294,292.877 141.011 C 293.112 140.728,293.502 140.496,293.743 140.496 C 293.984 140.496,294.301 140.305,294.446 140.071 C 294.672 139.708,296.180 138.679,299.011 136.955 C 299.373 136.734,300.339 136.220,301.157 135.812 C 301.975 135.404,302.942 134.823,303.306 134.521 C 304.536 133.498,308.550 131.240,309.136 131.240 C 309.457 131.240,309.838 131.054,309.984 130.826 C 310.361 130.236,312.176 129.007,313.808 128.236 C 314.577 127.873,315.802 127.209,316.529 126.762 C 318.216 125.724,322.497 123.636,322.937 123.636 C 323.122 123.636,323.392 123.448,323.537 123.218 C 323.683 122.988,324.694 122.336,325.785 121.769 C 328.132 120.549,334.996 116.367,336.251 115.393 C 336.734 115.018,337.368 114.711,337.659 114.711 C 337.950 114.711,338.670 114.246,339.259 113.678 C 339.848 113.109,340.926 112.385,341.653 112.068 C 342.380 111.750,343.267 111.164,343.624 110.765 C 344.560 109.720,348.227 107.158,349.623 106.575 C 350.279 106.301,350.890 105.825,350.981 105.518 C 351.072 105.210,352.797 103.620,354.815 101.983 C 367.390 91.787,377.978 78.765,382.501 67.934 C 385.700 60.273,385.899 49.288,382.973 41.894 C 382.701 41.209,382.479 40.578,382.479 40.493 C 382.479 40.209,387.571 37.781,389.989 36.912 C 397.578 34.186,399.706 31.804,399.933 25.785 C 400.126 20.680,398.537 15.800,395.332 11.650 C 394.806 10.970,394.083 10.030,393.726 9.562 C 388.743 3.039,378.915 -1.251,372.893 0.470 M380.184 4.392 C 392.049 8.437,400.762 24.620,394.185 30.395 C 389.496 34.512,378.011 28.877,372.469 19.739 C 366.055 9.163,370.169 0.978,380.184 4.392 M329.811 13.082 C 331.052 14.459,332.106 15.695,332.155 15.828 C 332.204 15.961,331.162 16.485,329.841 16.993 C 327.236 17.994,320.819 21.259,319.974 22.013 C 319.093 22.800,318.779 22.556,317.916 20.413 C 317.459 19.277,316.550 17.211,315.898 15.823 C 314.472 12.792,314.453 12.569,315.620 12.537 C 316.120 12.523,318.686 12.093,321.322 11.581 C 327.865 10.311,327.212 10.195,329.811 13.082 M368.591 17.127 C 369.543 19.596,370.927 22.093,371.924 23.141 C 372.184 23.415,373.702 25.073,375.298 26.826 C 377.461 29.202,378.661 30.232,380.009 30.870 C 382.257 31.935,382.349 31.691,378.926 33.742 C 372.825 37.397,366.962 41.453,363.591 44.349 C 361.467 46.175,361.232 46.220,359.087 45.219 C 352.968 42.364,350.543 35.808,353.877 31.134 C 356.452 27.523,362.943 17.897,365.197 14.345 L 367.107 11.334 367.353 12.946 C 367.489 13.832,368.046 15.714,368.591 17.127 M312.727 14.235 C 312.727 14.428,313.083 15.358,313.518 16.301 C 316.969 23.785,316.998 23.882,316.001 24.580 C 315.371 25.022,315.112 24.967,313.109 23.970 C 309.642 22.243,308.448 22.211,305.288 23.758 C 297.923 27.364,291.235 34.319,287.531 42.224 C 285.729 46.068,285.840 46.478,288.639 46.333 C 291.522 46.183,291.559 46.383,289.194 49.277 C 288.090 50.629,286.374 52.814,285.382 54.132 C 283.378 56.794,281.537 57.519,281.183 55.785 C 278.582 43.072,286.120 31.063,304.233 19.063 C 312.580 13.534,312.727 13.450,312.727 14.235 M349.421 16.912 C 352.164 17.359,358.347 19.731,358.347 20.336 C 358.347 21.143,357.577 21.322,354.034 21.338 C 349.946 21.356,347.934 22.070,347.934 23.503 C 347.934 24.386,348.306 24.433,350.579 23.835 C 351.306 23.643,352.911 23.483,354.145 23.479 L 356.388 23.471 354.990 25.537 C 354.221 26.674,352.765 28.719,351.754 30.083 L 349.917 32.562 349.917 35.041 C 349.917 44.770,360.754 51.659,368.194 46.660 C 369.778 45.596,371.954 44.229,373.029 43.623 L 374.984 42.521 374.781 45.149 C 373.917 56.351,362.302 59.696,351.896 51.739 C 344.992 46.461,341.502 38.034,343.318 31.028 C 343.863 28.926,343.772 28.430,342.842 28.430 C 340.698 28.430,339.813 34.528,341.175 39.915 C 342.690 45.907,348.171 52.830,353.636 55.656 C 356.100 56.930,356.217 57.049,355.748 57.789 C 355.074 58.852,348.977 55.716,345.725 52.632 C 342.424 49.503,341.144 51.026,344.348 54.270 C 350.057 60.051,359.325 62.313,366.792 59.747 C 372.688 57.722,377.674 49.940,377.103 43.652 C 376.803 40.344,378.055 39.967,379.216 43.016 C 383.093 53.201,381.697 62.768,374.601 74.641 C 372.185 78.683,366.464 85.779,362.152 90.083 C 358.491 93.737,351.003 100.214,347.344 102.891 C 342.864 106.170,329.403 115.126,327.107 116.356 C 326.017 116.940,324.934 117.575,324.701 117.766 C 324.469 117.957,322.833 118.847,321.065 119.745 C 315.467 122.587,312.252 124.391,306.612 127.853 C 303.032 130.051,302.128 130.327,299.028 130.167 C 291.955 129.802,283.473 125.188,277.283 118.338 C 275.213 116.047,274.537 115.678,273.785 116.430 C 272.864 117.351,276.265 121.419,280.927 124.975 C 282.073 125.849,283.040 126.630,283.076 126.711 C 283.111 126.792,279.496 129.600,275.041 132.951 C 261.391 143.219,259.483 144.707,255.176 148.447 C 248.123 154.571,242.933 160.626,240.196 165.926 C 238.375 169.451,237.913 169.673,234.669 168.583 C 224.371 165.124,216.195 152.706,219.028 144.828 C 219.889 142.435,222.158 139.945,223.903 139.481 C 226.414 138.814,231.009 134.597,237.038 127.427 C 239.990 123.916,251.548 108.565,251.813 107.802 C 251.914 107.511,252.410 106.826,252.916 106.281 C 253.967 105.148,256.589 101.474,257.400 100.000 C 257.700 99.455,259.226 97.316,260.791 95.248 C 264.225 90.711,263.744 91.401,267.279 85.950 C 268.872 83.496,270.724 80.669,271.396 79.669 C 272.068 78.669,272.680 77.702,272.756 77.521 C 272.832 77.339,273.717 75.926,274.723 74.380 C 275.730 72.835,277.356 70.157,278.337 68.430 C 279.957 65.579,281.728 62.782,284.031 59.439 C 294.084 44.842,312.851 27.617,325.206 21.646 C 327.343 20.613,329.343 19.638,329.651 19.479 C 334.793 16.830,342.653 15.809,349.421 16.912 M308.287 28.531 C 306.515 29.858,300.562 35.001,300.101 35.604 C 299.851 35.931,299.069 36.719,298.364 37.355 L 297.081 38.512 297.858 37.355 C 299.362 35.118,304.589 30.212,306.777 28.985 C 309.211 27.619,309.703 27.471,308.287 28.531 M359.789 58.347 C 359.590 58.865,358.678 59.046,358.678 58.567 C 358.678 58.164,359.058 57.851,359.549 57.851 C 359.796 57.851,359.898 58.063,359.789 58.347 M220.310 160.129 C 222.017 162.777,227.389 168.161,230.004 169.845 L 232.074 171.178 230.004 172.329 C 228.865 172.961,226.446 174.246,224.628 175.184 C 222.810 176.122,220.223 177.487,218.879 178.218 L 216.436 179.545 214.516 177.571 C 212.716 175.720,211.900 174.369,211.221 172.116 C 210.977 171.308,211.118 170.933,212.216 169.472 C 213.903 167.226,216.976 161.326,217.729 158.885 C 218.227 157.271,218.385 157.042,218.668 157.526 C 218.855 157.847,219.594 159.018,220.310 160.129 M210.579 175.821 C 210.579 176.159,211.189 177.129,211.935 177.977 C 213.114 179.316,213.235 179.594,212.861 180.090 C 210.377 183.379,207.991 181.043,209.453 176.753 C 209.986 175.187,210.579 174.696,210.579 175.821 M132.260 233.884 C 132.250 234.248,132.386 234.769,132.562 235.041 C 132.987 235.698,132.987 234.873,132.562 233.884 L 132.278 233.223 132.260 233.884 M143.636 240.661 C 142.999 240.935,143.001 240.946,143.699 240.969 C 144.098 240.981,144.516 240.843,144.628 240.661 C 144.870 240.270,144.546 240.270,143.636 240.661 " stroke="none" fill="#fcbc34" fill-rule="evenodd"></path><path id="path1" d="M57.025 27.586 C 55.388 28.177,52.488 29.217,50.579 29.897 C 47.385 31.034,44.540 32.132,34.050 36.274 C 31.959 37.099,30.169 37.897,30.073 38.046 C 29.976 38.195,28.516 38.850,26.829 39.502 C 8.614 46.536,0.243 51.987,0.220 56.829 C 0.179 65.626,0.916 72.643,2.111 74.837 C 2.495 75.542,3.018 76.509,3.272 76.985 C 3.526 77.462,4.159 78.393,4.677 79.056 C 5.196 79.718,5.620 80.408,5.620 80.588 C 5.620 80.769,6.188 81.789,6.882 82.855 C 7.576 83.921,8.432 85.235,8.783 85.775 C 9.134 86.315,10.091 87.987,10.909 89.489 C 11.727 90.992,13.446 93.972,14.728 96.111 C 16.010 98.250,17.263 100.521,17.513 101.157 C 17.762 101.793,18.745 103.876,19.696 105.785 C 23.466 113.350,29.421 125.676,29.421 125.914 C 29.421 126.053,30.629 128.981,32.104 132.422 C 33.580 135.863,35.126 139.570,35.540 140.661 C 36.796 143.970,38.463 147.924,38.676 148.099 C 39.145 148.483,40.361 151.840,40.192 152.281 C 40.091 152.545,40.125 152.689,40.270 152.600 C 40.414 152.511,40.697 152.875,40.898 153.409 C 41.102 153.948,41.130 154.380,40.963 154.380 C 40.797 154.380,40.661 154.603,40.661 154.876 C 40.661 155.149,40.871 155.372,41.127 155.372 C 41.543 155.372,44.613 162.612,45.963 166.777 C 46.199 167.504,46.676 168.727,47.023 169.495 C 47.384 170.295,47.563 171.177,47.441 171.561 C 47.291 172.034,47.376 172.231,47.731 172.231 C 48.053 172.231,48.315 172.679,48.458 173.471 C 48.581 174.153,48.791 174.860,48.924 175.041 C 49.058 175.223,49.640 176.612,50.219 178.128 C 50.797 179.644,51.411 181.132,51.583 181.434 C 52.084 182.317,54.668 189.437,59.340 202.810 C 60.484 206.083,61.991 210.397,62.690 212.397 C 63.389 214.397,64.087 216.124,64.240 216.235 C 64.394 216.347,64.497 216.495,64.470 216.566 C 64.407 216.727,64.459 216.880,66.130 221.488 C 66.889 223.579,68.221 227.446,69.090 230.083 C 72.346 239.960,77.110 253.725,77.328 253.884 C 77.451 253.975,77.746 254.719,77.983 255.537 C 78.220 256.355,79.052 258.810,79.834 260.992 C 80.615 263.174,81.856 266.818,82.592 269.091 C 83.328 271.364,85.137 276.719,86.611 280.992 C 88.084 285.264,89.464 289.281,89.677 289.917 C 89.890 290.554,90.254 291.271,90.486 291.511 C 90.719 291.751,90.909 292.158,90.909 292.415 C 90.909 292.875,91.686 295.174,94.699 303.636 C 95.541 306.000,96.543 308.826,96.927 309.917 C 98.511 314.418,101.108 320.659,101.603 321.155 C 101.895 321.447,102.249 321.873,102.389 322.103 C 104.410 325.411,117.510 330.577,123.878 330.578 C 127.096 330.579,128.145 330.107,134.343 325.875 C 137.232 323.902,140.282 321.892,141.120 321.408 C 141.959 320.924,142.719 320.438,142.810 320.329 C 143.248 319.803,145.672 318.531,146.066 318.620 C 146.312 318.676,146.418 318.570,146.303 318.383 C 146.188 318.197,146.582 317.798,147.179 317.496 C 147.776 317.194,148.562 316.681,148.926 316.356 C 149.289 316.030,150.256 315.420,151.074 315.000 C 151.893 314.581,152.849 313.974,153.199 313.651 C 153.549 313.329,154.135 312.970,154.501 312.854 C 154.868 312.738,156.605 311.784,158.362 310.735 C 162.595 308.207,163.726 307.619,164.185 307.709 C 164.396 307.750,164.847 307.446,165.187 307.032 C 165.527 306.619,166.360 305.983,167.037 305.620 C 167.714 305.256,170.908 303.531,174.134 301.787 C 177.360 300.042,182.579 297.324,185.732 295.748 C 188.885 294.171,191.675 292.670,191.932 292.412 C 192.190 292.155,192.734 291.845,193.142 291.724 C 193.550 291.603,196.190 290.417,199.008 289.089 C 206.078 285.757,207.243 285.250,207.966 285.196 C 208.312 285.170,208.595 285.060,208.595 284.952 C 208.595 284.844,209.153 284.513,209.835 284.217 C 214.802 282.060,217.267 280.956,218.843 280.184 C 219.843 279.694,222.521 278.552,224.793 277.646 C 227.066 276.740,229.556 275.709,230.327 275.355 C 231.098 275.001,231.853 274.711,232.006 274.711 C 232.159 274.711,234.503 273.880,237.216 272.865 C 239.929 271.850,244.678 270.196,247.769 269.189 C 250.860 268.181,253.463 267.251,253.554 267.120 C 254.493 265.772,287.832 257.633,299.669 255.863 C 301.124 255.645,302.612 255.407,302.975 255.334 C 303.339 255.261,305.050 255.041,306.777 254.843 C 308.504 254.646,310.215 254.353,310.579 254.191 C 311.708 253.688,320.772 252.912,329.587 252.564 C 343.139 252.028,343.077 252.060,344.603 244.777 C 346.796 234.313,346.283 230.835,341.807 225.799 L 339.678 223.403 338.186 223.621 C 336.419 223.880,335.599 224.022,333.388 224.448 C 332.479 224.623,329.207 225.215,326.116 225.763 C 315.201 227.699,311.236 228.489,310.926 228.788 C 310.753 228.955,310.317 229.091,309.956 229.091 C 309.595 229.091,306.241 229.763,302.501 230.585 C 281.355 235.231,264.155 239.487,256.033 242.083 C 254.579 242.548,250.339 243.771,246.612 244.800 C 242.884 245.830,238.347 247.116,236.529 247.658 C 234.711 248.200,231.959 249.017,230.413 249.475 C 224.832 251.129,216.026 253.964,215.702 254.212 C 215.521 254.351,213.364 255.091,210.909 255.858 C 206.007 257.388,190.887 262.463,188.264 263.458 C 187.355 263.803,185.050 264.640,183.140 265.317 C 181.231 265.995,179.516 266.666,179.330 266.808 C 179.143 266.950,175.360 268.424,170.924 270.084 C 160.851 273.852,148.399 278.931,146.942 279.866 C 146.579 280.099,144.198 281.177,141.653 282.261 C 139.107 283.346,135.622 284.917,133.908 285.753 C 130.261 287.532,130.031 287.563,129.504 286.364 C 129.284 285.864,128.995 285.375,128.862 285.277 C 128.728 285.180,127.590 282.948,126.333 280.318 C 125.076 277.689,122.319 271.992,120.205 267.659 C 118.092 263.326,116.364 259.656,116.364 259.505 C 116.364 259.353,116.239 259.179,116.088 259.118 C 115.936 259.058,115.285 257.967,114.642 256.694 C 112.322 252.102,107.370 241.826,106.849 240.525 C 106.557 239.794,105.751 238.166,105.059 236.907 C 104.368 235.649,103.802 234.502,103.802 234.358 C 103.802 234.214,103.578 233.873,103.305 233.600 C 103.032 233.327,101.638 230.676,100.209 227.709 C 94.539 215.939,90.479 207.760,90.228 207.598 C 90.082 207.504,89.005 205.422,87.834 202.970 C 83.680 194.273,77.608 181.981,77.385 181.818 C 77.261 181.727,76.736 180.760,76.218 179.669 C 75.701 178.579,73.904 174.860,72.225 171.405 C 70.546 167.950,68.163 163.041,66.928 160.496 C 65.694 157.950,64.578 155.793,64.449 155.702 C 64.320 155.612,63.452 153.943,62.521 151.995 C 57.636 141.771,51.826 130.126,51.397 129.697 C 50.934 129.234,50.774 128.761,50.877 128.160 C 50.903 128.012,50.622 127.467,50.253 126.949 C 49.884 126.432,47.493 121.718,44.939 116.475 C 39.961 106.255,39.015 104.391,38.675 104.132 C 38.555 104.041,38.044 103.074,37.540 101.983 C 37.035 100.893,35.089 96.876,33.217 93.058 C 31.344 89.240,29.714 85.643,29.595 85.064 C 29.476 84.486,29.141 83.816,28.850 83.577 C 28.559 83.337,27.812 82.026,27.190 80.663 C 26.568 79.301,25.936 78.110,25.787 78.017 C 25.637 77.925,24.368 75.470,22.966 72.561 C 21.564 69.652,19.170 64.709,17.647 61.577 C 16.123 58.444,14.877 55.617,14.878 55.296 C 14.880 54.461,18.535 50.749,20.182 49.909 C 22.101 48.930,28.883 45.868,33.058 44.096 C 34.967 43.285,36.780 42.483,37.086 42.313 C 37.393 42.143,39.698 41.169,42.208 40.147 C 44.719 39.125,46.849 38.187,46.940 38.061 C 47.219 37.681,54.506 34.804,62.149 32.058 C 63.512 31.568,64.851 31.077,65.124 30.967 C 65.397 30.857,66.475 30.453,67.521 30.070 C 70.378 29.024,69.972 28.639,64.793 27.484 C 60.100 26.437,60.211 26.436,57.025 27.586 " stroke="none" fill="#1c1444" fill-rule="evenodd"></path><path id="path2" d="M11.250 90.808 C 11.244 91.025,11.574 91.553,11.983 91.981 C 12.393 92.409,12.562 92.529,12.360 92.248 C 12.159 91.966,11.828 91.438,11.627 91.074 C 11.425 90.711,11.255 90.591,11.250 90.808 M99.945 98.571 C 99.369 98.723,98.531 99.284,98.083 99.816 C 96.424 101.788,95.433 101.892,90.083 100.653 C 88.810 100.358,87.174 99.986,86.446 99.825 C 81.899 98.820,80.472 100.084,80.272 105.289 C 80.131 108.981,77.784 112.066,75.116 112.066 C 72.791 112.066,71.865 114.048,73.766 114.957 C 78.004 116.981,82.951 111.926,83.793 104.711 C 83.915 103.665,84.115 102.813,84.239 102.816 C 84.362 102.819,85.727 103.055,87.273 103.340 C 91.964 104.204,95.495 104.707,96.280 104.625 C 96.690 104.582,97.285 104.528,97.602 104.505 C 97.920 104.482,98.752 103.946,99.451 103.314 C 101.320 101.626,101.924 101.495,104.613 102.193 C 108.232 103.134,110.455 102.771,111.987 100.989 C 113.489 99.243,111.994 98.292,109.489 99.399 C 108.344 99.905,107.420 99.819,104.824 98.964 C 102.973 98.355,101.277 98.218,99.945 98.571 M160.752 105.379 C 159.572 106.295,158.724 109.385,158.339 114.168 C 158.102 117.120,157.582 120.155,156.718 123.636 C 156.018 126.455,155.333 129.727,155.195 130.909 C 155.057 132.091,154.896 133.430,154.837 133.884 C 154.506 136.422,154.028 142.353,153.961 144.754 L 153.884 147.525 151.736 145.761 C 150.554 144.791,148.267 142.548,146.654 140.777 C 141.193 134.783,139.407 135.104,133.960 143.056 C 131.559 146.562,130.125 147.911,129.119 147.612 C 128.740 147.499,127.591 147.321,126.566 147.215 L 124.702 147.022 122.910 148.800 C 121.924 149.778,120.721 151.069,120.237 151.668 C 119.383 152.725,117.898 153.713,117.158 153.717 C 116.959 153.718,116.153 152.526,115.368 151.067 C 112.799 146.294,111.224 147.158,106.922 155.702 C 102.668 164.151,98.106 165.175,95.871 158.182 C 95.639 157.455,95.243 156.453,94.991 155.955 C 94.092 154.179,93.615 147.788,94.182 145.107 C 94.673 142.784,96.168 138.843,96.558 138.843 C 96.724 138.843,96.860 138.683,96.860 138.486 C 96.860 137.813,99.464 135.628,100.517 135.417 C 102.733 134.974,103.299 135.158,105.455 137.025 C 108.060 139.281,109.421 139.372,109.421 137.290 C 109.421 134.222,103.675 131.525,99.706 132.729 C 96.966 133.560,91.901 139.005,91.901 141.119 C 91.901 141.431,91.777 141.827,91.626 142.000 C 89.514 144.413,90.316 155.328,92.937 159.862 C 98.445 169.389,104.101 168.154,110.203 156.093 C 112.230 152.089,111.991 152.230,113.446 154.172 C 116.348 158.047,118.934 157.870,122.504 153.552 C 124.976 150.563,125.602 150.004,126.206 150.246 C 129.903 151.725,133.554 149.762,136.142 144.902 C 136.353 144.507,136.712 143.986,136.940 143.744 C 137.168 143.503,137.923 142.598,138.617 141.735 C 140.695 139.150,141.003 139.111,142.921 141.195 C 147.906 146.610,149.598 148.227,151.711 149.593 C 154.264 151.245,154.269 151.255,154.523 155.041 C 154.831 159.626,156.126 162.788,158.086 163.737 C 162.007 165.636,162.627 157.651,158.979 152.236 C 157.184 149.573,156.845 146.621,157.382 138.347 C 157.854 131.100,158.757 125.671,159.142 127.769 C 160.411 134.664,165.018 136.331,169.873 131.651 L 172.017 129.583 174.220 129.642 C 176.828 129.712,177.128 129.525,182.108 124.726 C 185.832 121.137,185.514 121.226,187.430 123.223 C 191.524 127.488,197.867 128.492,199.651 125.158 C 200.645 123.301,199.383 122.620,196.876 123.659 C 194.149 124.789,192.971 124.325,189.593 120.789 C 185.910 116.933,185.616 116.986,180.165 122.504 C 176.590 126.123,176.069 126.408,173.553 126.116 C 171.489 125.876,169.781 126.794,168.228 128.979 C 165.621 132.647,164.385 132.349,162.551 127.610 C 161.468 124.811,161.122 117.643,161.992 116.018 C 162.568 114.940,164.293 108.444,164.296 107.340 C 164.300 105.414,162.202 104.253,160.752 105.379 M182.497 160.805 C 181.961 161.451,182.608 162.645,183.493 162.645 C 184.411 162.645,184.658 161.756,183.956 160.979 C 183.255 160.205,183.018 160.177,182.497 160.805 M164.260 168.144 C 164.054 168.392,163.698 168.595,163.469 168.595 C 161.664 168.595,160.227 179.607,161.573 183.126 C 161.743 183.572,161.770 184.440,161.632 185.053 C 161.493 185.666,161.461 186.087,161.560 185.988 C 161.820 185.728,162.776 187.035,163.588 188.760 C 164.611 190.934,167.040 193.301,168.813 193.853 C 170.589 194.406,170.436 194.881,167.549 197.763 C 163.014 202.290,160.297 203.055,156.049 200.999 C 153.566 199.798,152.770 199.975,152.738 201.736 C 152.715 202.969,152.187 202.190,151.128 199.361 C 148.100 191.277,143.975 192.132,138.745 201.928 L 137.274 204.683 136.571 203.695 C 136.184 203.152,135.868 202.545,135.868 202.346 C 135.868 202.146,135.744 201.983,135.593 201.983 C 135.442 201.983,135.112 201.574,134.859 201.074 C 134.189 199.747,132.478 197.208,132.168 197.080 C 132.021 197.019,131.901 196.759,131.901 196.501 C 131.901 196.244,131.789 196.032,131.653 196.030 C 131.517 196.029,131.242 195.694,131.042 195.287 C 130.842 194.879,130.113 193.579,129.421 192.397 C 128.145 190.217,126.748 187.495,125.138 184.050 C 124.530 182.750,124.058 182.149,123.643 182.149 C 122.963 182.149,123.058 183.122,123.853 184.288 C 124.399 185.090,124.439 185.912,123.916 185.588 C 123.685 185.445,123.624 185.497,123.761 185.720 C 123.886 185.922,124.192 186.008,124.442 185.913 C 124.743 185.797,124.971 186.080,125.119 186.754 C 125.241 187.312,125.479 187.769,125.646 187.769 C 125.813 187.769,125.950 188.048,125.950 188.389 C 125.950 188.731,126.174 189.195,126.446 189.421 C 126.719 189.648,126.942 190.037,126.942 190.285 C 126.942 190.534,127.612 191.715,128.430 192.910 C 129.248 194.105,129.917 195.297,129.917 195.558 C 129.917 195.819,130.066 196.033,130.248 196.033 C 130.430 196.033,130.579 196.209,130.579 196.425 C 130.579 196.641,130.862 197.124,131.208 197.499 C 131.555 197.875,132.112 198.641,132.448 199.203 C 133.072 200.248,134.212 202.011,135.942 204.605 L 136.918 206.070 135.911 209.068 C 135.065 211.587,134.521 213.539,133.743 216.860 C 131.610 225.954,131.960 233.895,134.647 237.369 C 138.292 242.080,147.141 241.293,149.337 236.061 C 149.774 235.021,150.183 228.218,149.785 228.617 C 149.605 228.798,148.760 227.139,148.760 226.604 C 148.760 226.369,148.410 225.456,147.982 224.576 C 146.577 221.685,145.785 219.931,145.785 219.709 C 145.785 219.589,145.413 218.902,144.959 218.182 C 144.504 217.462,144.132 216.647,144.132 216.370 C 144.132 216.094,144.012 215.868,143.865 215.868 C 143.718 215.868,143.323 215.236,142.986 214.463 C 142.649 213.690,142.285 212.983,142.178 212.893 C 142.071 212.802,141.821 212.430,141.623 212.066 C 140.324 209.682,139.364 208.011,138.969 207.447 C 137.587 205.473,143.633 195.041,146.160 195.041 C 147.715 195.041,149.772 198.249,150.452 201.733 C 151.303 206.101,152.659 207.396,153.395 204.545 C 154.018 202.134,154.084 201.983,154.503 201.983 C 154.728 201.983,155.691 202.372,156.643 202.846 C 161.088 205.061,168.533 201.254,171.761 195.115 C 171.787 195.064,172.388 194.950,173.095 194.862 C 177.279 194.337,180.327 191.856,182.116 187.521 C 182.637 186.259,183.038 186.161,183.468 187.190 C 183.974 188.402,185.030 189.441,186.054 189.734 C 187.128 190.042,188.760 189.830,188.760 189.383 C 188.760 189.222,188.922 189.091,189.121 189.091 C 189.599 189.091,190.400 188.122,192.450 185.064 C 194.580 181.886,195.120 181.698,197.524 183.294 C 202.471 186.577,207.145 187.006,207.544 184.212 C 207.669 183.333,207.722 183.342,205.967 183.961 C 205.203 184.231,204.255 184.390,203.859 184.316 C 203.464 184.242,202.903 184.170,202.612 184.157 C 202.321 184.143,200.685 183.289,198.975 182.259 C 194.420 179.513,194.022 179.614,190.929 184.310 C 188.512 187.981,186.344 189.286,185.304 187.696 C 184.446 186.386,184.277 182.704,184.959 180.165 C 185.644 177.612,185.603 177.190,184.671 177.190 C 183.849 177.190,183.478 178.090,182.965 181.322 C 182.372 185.058,177.866 192.349,176.112 192.411 C 175.887 192.419,175.130 192.630,174.430 192.880 C 172.944 193.409,172.947 193.524,174.336 189.587 C 175.681 185.775,175.554 180.616,174.031 177.198 C 172.608 174.006,172.378 173.561,172.149 173.558 C 172.012 173.555,171.901 173.331,171.901 173.058 C 171.901 172.785,171.752 172.562,171.570 172.562 C 171.388 172.562,171.240 172.412,171.240 172.229 C 171.240 170.354,165.307 166.883,164.260 168.144 M168.924 170.868 C 170.632 172.589,172.729 176.154,173.420 178.512 C 174.541 182.339,173.539 190.048,171.611 192.428 L 171.000 193.183 169.416 192.578 C 165.672 191.147,163.879 188.232,162.700 181.653 C 162.271 179.259,162.505 173.815,163.116 171.976 C 164.282 168.465,166.179 168.103,168.924 170.868 M138.182 208.430 C 138.182 208.702,138.313 208.926,138.474 208.926 C 138.634 208.926,138.849 209.186,138.952 209.504 C 139.152 210.128,140.914 213.260,141.680 214.354 C 141.938 214.722,142.149 215.288,142.149 215.611 C 142.149 215.934,142.298 216.198,142.479 216.198 C 142.661 216.198,142.810 216.478,142.810 216.819 C 142.810 217.160,143.033 217.625,143.306 217.851 C 143.579 218.078,143.802 218.542,143.802 218.883 C 143.802 219.225,143.948 219.504,144.126 219.504 C 144.304 219.504,144.547 219.913,144.666 220.413 C 144.785 220.913,145.069 221.545,145.297 221.818 C 145.525 222.091,145.821 222.835,145.954 223.471 C 146.087 224.107,146.500 225.223,146.871 225.950 C 150.259 232.588,148.200 238.931,142.492 239.445 C 134.994 240.120,131.948 232.505,134.515 219.504 C 135.929 212.344,138.182 205.540,138.182 208.430 " stroke="none" fill="#060606" fill-rule="evenodd"></path><path id="path3" d="M164.184 167.521 C 164.100 167.657,164.459 167.784,164.981 167.803 C 165.503 167.822,165.852 167.711,165.755 167.555 C 165.540 167.207,164.393 167.182,164.184 167.521 M166.446 167.603 C 166.559 167.785,166.881 167.934,167.163 167.934 C 167.444 167.934,168.626 168.889,169.788 170.057 C 172.022 172.302,172.565 172.527,170.913 170.522 C 169.557 168.877,165.660 166.330,166.446 167.603 M161.904 169.008 C 161.133 170.187,160.788 171.617,161.485 170.744 C 161.775 170.380,162.094 169.756,162.194 169.357 C 162.295 168.958,162.623 168.566,162.924 168.486 C 163.423 168.354,163.423 168.338,162.931 168.303 C 162.633 168.282,162.171 168.599,161.904 169.008 M166.160 169.516 C 166.071 169.659,166.471 169.983,167.049 170.234 C 168.156 170.715,169.341 171.815,169.923 172.903 C 170.115 173.261,170.452 173.542,170.673 173.528 C 170.975 173.508,170.973 173.460,170.661 173.335 C 170.434 173.243,170.248 172.987,170.248 172.767 C 170.248 171.877,166.529 168.919,166.160 169.516 M164.418 170.069 C 163.762 170.528,162.699 173.388,163.052 173.741 C 163.145 173.834,163.388 173.246,163.592 172.435 C 163.817 171.540,164.307 170.689,164.836 170.273 C 165.822 169.498,165.475 169.328,164.418 170.069 M172.145 172.442 C 171.883 172.858,172.783 173.774,173.121 173.436 C 173.238 173.319,173.171 173.223,172.972 173.223 C 172.773 173.223,172.559 172.963,172.496 172.645 C 172.421 172.266,172.300 172.196,172.145 172.442 M162.948 174.298 C 162.727 174.970,162.684 176.198,162.881 176.198 C 163.024 176.197,163.172 175.751,163.210 175.206 C 163.264 174.425,163.097 173.845,162.948 174.298 M160.537 175.054 C 160.423 175.350,160.343 175.839,160.359 176.143 C 160.375 176.446,160.518 176.255,160.679 175.719 C 160.990 174.676,160.880 174.159,160.537 175.054 M173.924 176.206 C 174.425 177.686,174.707 177.973,174.403 176.694 C 174.274 176.149,174.026 175.557,173.852 175.379 C 173.678 175.202,173.711 175.574,173.924 176.206 M183.819 176.762 C 183.390 177.246,183.419 177.281,184.099 177.103 C 185.672 176.692,186.211 177.679,185.474 179.618 C 185.303 180.068,185.086 181.305,184.992 182.367 C 184.831 184.170,184.862 184.112,185.453 181.488 C 186.247 177.961,186.260 177.207,185.537 176.659 C 184.781 176.084,184.401 176.107,183.819 176.762 M172.747 178.843 C 173.018 179.863,173.554 180.498,173.554 179.799 C 173.554 179.524,173.323 179.011,173.041 178.658 C 172.548 178.042,172.536 178.049,172.747 178.843 M182.668 179.693 C 182.547 180.178,182.511 180.638,182.589 180.716 C 182.667 180.793,182.830 180.461,182.952 179.976 C 183.073 179.492,183.109 179.032,183.031 178.954 C 182.953 178.876,182.790 179.209,182.668 179.693 M160.667 179.669 C 160.477 181.159,160.951 184.132,161.378 184.132 C 161.579 184.132,161.622 183.890,161.482 183.554 C 161.349 183.236,161.131 182.083,160.996 180.992 C 160.862 179.901,160.714 179.306,160.667 179.669 M196.284 180.329 C 196.876 180.586,197.843 181.157,198.432 181.597 C 199.635 182.494,200.992 183.243,200.992 183.010 C 200.992 182.559,196.363 179.826,195.636 179.848 C 195.400 179.855,195.691 180.071,196.284 180.329 M192.300 181.276 C 191.689 181.886,190.852 183.039,190.440 183.838 C 190.028 184.636,189.115 185.847,188.412 186.529 C 187.708 187.211,187.265 187.769,187.425 187.769 C 187.942 187.769,189.570 185.937,191.222 183.498 C 192.106 182.192,193.137 180.907,193.513 180.644 C 193.889 180.381,194.020 180.165,193.804 180.165 C 193.587 180.165,192.911 180.665,192.300 181.276 M124.057 181.901 C 124.357 182.128,124.748 182.686,124.925 183.140 C 125.195 183.833,125.249 183.860,125.258 183.306 C 125.271 182.495,124.546 181.488,123.950 181.488 C 123.641 181.488,123.672 181.610,124.057 181.901 M162.975 182.334 C 162.975 182.799,163.110 183.096,163.275 182.994 C 163.439 182.893,163.497 182.512,163.401 182.148 C 163.164 181.239,162.975 181.321,162.975 182.334 M173.285 182.585 C 173.309 183.239,173.444 183.704,173.584 183.618 C 173.872 183.439,173.773 181.927,173.451 181.606 C 173.335 181.489,173.260 181.930,173.285 182.585 M122.544 182.279 C 122.409 182.623,122.376 182.982,122.472 183.078 C 122.773 183.379,123.038 182.885,122.912 182.257 C 122.796 181.682,122.779 181.683,122.544 182.279 M181.818 183.063 C 181.818 183.828,180.806 185.721,178.816 188.678 C 177.012 191.359,177.069 191.932,178.899 189.504 C 180.283 187.667,180.523 187.247,181.640 184.701 C 182.590 182.539,182.603 182.479,182.149 182.479 C 181.967 182.479,181.818 182.742,181.818 183.063 M195.868 183.039 C 196.413 183.332,197.306 183.899,197.851 184.299 C 198.802 184.996,200.000 185.563,200.000 185.316 C 200.000 185.076,195.650 182.480,195.270 182.493 C 195.053 182.500,195.322 182.746,195.868 183.039 M193.621 183.647 C 193.294 184.096,193.166 184.463,193.335 184.463 C 193.504 184.463,193.887 184.091,194.184 183.636 C 194.885 182.568,194.400 182.576,193.621 183.647 M201.322 183.068 C 201.322 183.375,203.003 184.132,203.686 184.132 C 204.397 184.132,203.868 183.607,203.091 183.543 C 202.610 183.503,202.015 183.304,201.769 183.100 C 201.485 182.864,201.322 182.852,201.322 183.068 M206.116 183.325 C 205.168 183.787,205.865 183.787,206.981 183.325 C 207.647 183.049,208.084 184.379,207.542 185.032 C 207.342 185.273,207.253 185.545,207.344 185.636 C 207.788 186.080,208.362 184.708,208.073 183.892 C 207.692 182.813,207.362 182.717,206.116 183.325 M175.621 184.959 C 175.624 185.686,175.692 185.945,175.771 185.533 C 175.850 185.122,175.847 184.527,175.764 184.211 C 175.682 183.895,175.617 184.231,175.621 184.959 M125.630 184.463 C 125.630 184.736,125.774 185.182,125.950 185.455 C 126.235 185.895,126.271 185.895,126.271 185.455 C 126.271 185.182,126.127 184.736,125.950 184.463 C 125.666 184.022,125.630 184.022,125.630 184.463 M173.141 185.628 C 173.053 186.087,173.110 186.542,173.267 186.639 C 173.425 186.736,173.554 186.361,173.554 185.805 C 173.554 184.577,173.358 184.493,173.141 185.628 M192.150 185.962 C 191.706 186.639,191.592 187.015,191.861 186.912 C 192.284 186.749,193.194 185.150,192.984 184.940 C 192.929 184.885,192.554 185.345,192.150 185.962 M200.502 185.796 C 200.700 186.116,202.625 186.576,202.845 186.356 C 202.930 186.271,202.400 186.050,201.667 185.864 C 200.935 185.678,200.411 185.647,200.502 185.796 M124.303 186.509 C 124.312 187.339,124.948 188.023,124.954 187.210 C 124.956 186.811,124.810 186.393,124.628 186.281 C 124.446 186.169,124.300 186.271,124.303 186.509 M175.390 186.860 C 175.044 187.993,174.893 189.534,175.157 189.246 C 175.475 188.899,175.926 186.446,175.671 186.446 C 175.586 186.446,175.460 186.632,175.390 186.860 M182.700 186.960 C 182.578 187.314,182.380 187.826,182.260 188.099 C 182.080 188.507,182.130 188.522,182.539 188.185 C 182.812 187.959,183.134 187.872,183.254 187.992 C 183.533 188.271,183.495 187.782,183.173 186.960 C 182.923 186.322,182.919 186.322,182.700 186.960 M162.340 187.686 C 162.326 188.095,162.472 188.430,162.664 188.430 C 162.857 188.430,162.908 188.601,162.778 188.811 C 162.629 189.053,162.688 189.103,162.940 188.947 C 163.190 188.793,163.226 188.559,163.036 188.318 C 162.869 188.107,162.651 187.711,162.550 187.438 C 162.429 187.111,162.357 187.196,162.340 187.686 M172.615 188.383 C 172.404 189.087,172.242 189.869,172.254 190.121 C 172.267 190.373,172.499 189.856,172.770 188.973 C 173.042 188.091,173.204 187.309,173.131 187.236 C 173.058 187.163,172.826 187.679,172.615 188.383 M184.411 189.421 C 185.161 190.139,185.747 190.403,186.526 190.375 C 187.180 190.352,187.344 190.279,186.942 190.191 C 185.611 189.898,184.506 189.350,184.332 188.895 C 184.233 188.639,183.977 188.430,183.763 188.430 C 183.549 188.430,183.840 188.876,184.411 189.421 M127.646 188.926 C 127.942 189.725,129.444 192.061,129.664 192.064 C 129.974 192.067,128.698 189.745,128.030 189.091 C 127.752 188.818,127.579 188.744,127.646 188.926 M181.607 189.026 C 181.410 189.153,181.012 189.702,180.721 190.248 C 179.841 191.900,178.314 193.383,176.634 194.216 C 175.039 195.008,175.070 195.328,176.682 194.715 C 177.669 194.340,180.826 191.485,180.826 190.968 C 180.826 190.777,181.149 190.277,181.544 189.857 C 182.255 189.100,182.294 188.584,181.607 189.026 M165.649 189.669 C 166.031 190.275,167.603 191.560,167.603 191.267 C 167.603 191.037,165.688 189.091,165.463 189.091 C 165.364 189.091,165.448 189.351,165.649 189.669 M163.710 190.248 C 164.209 191.441,164.316 191.557,166.559 193.322 C 167.529 194.086,168.614 194.711,168.968 194.711 C 169.517 194.711,169.550 194.790,169.187 195.244 C 168.089 196.616,166.302 198.340,164.828 199.446 C 163.836 200.192,163.431 200.661,163.781 200.661 C 164.339 200.661,169.919 195.343,169.916 194.814 C 169.915 194.666,169.281 194.285,168.506 193.966 C 167.214 193.435,165.011 191.543,163.791 189.917 C 163.337 189.311,163.330 189.339,163.710 190.248 M126.180 190.394 C 126.278 190.768,126.500 191.074,126.674 191.074 C 127.113 191.074,126.865 190.002,126.390 189.843 C 126.143 189.761,126.067 189.962,126.180 190.394 M171.510 191.570 C 171.303 192.025,170.944 192.397,170.712 192.397 C 170.015 192.397,168.460 191.721,168.194 191.302 C 168.008 191.009,167.943 191.019,167.939 191.339 C 167.933 191.805,169.852 192.727,170.826 192.727 C 171.188 192.727,171.573 192.335,171.800 191.736 C 172.252 190.536,172.037 190.413,171.510 191.570 M173.786 191.901 C 173.211 193.105,173.280 193.200,174.380 192.727 C 174.744 192.571,174.853 192.433,174.622 192.420 C 174.342 192.404,174.271 192.122,174.410 191.570 C 174.703 190.402,174.432 190.545,173.786 191.901 M175.868 191.928 C 175.407 192.184,175.260 192.384,175.537 192.381 C 175.810 192.378,176.322 192.157,176.675 191.890 C 177.470 191.288,176.979 191.312,175.868 191.928 M127.603 192.922 C 127.603 193.030,128.012 193.696,128.512 194.403 C 129.468 195.753,130.344 196.242,129.510 194.959 C 129.244 194.550,128.819 193.880,128.566 193.471 C 128.137 192.779,127.603 192.475,127.603 192.922 M147.438 193.388 C 147.438 193.570,147.559 193.719,147.706 193.719 C 147.854 193.719,148.300 194.022,148.698 194.393 C 149.250 194.907,149.421 194.952,149.421 194.581 C 149.421 194.313,149.124 194.000,148.760 193.884 C 148.397 193.769,148.099 193.536,148.099 193.366 C 148.099 193.197,147.950 193.058,147.769 193.058 C 147.587 193.058,147.438 193.207,147.438 193.388 M143.140 194.986 C 143.140 195.198,142.917 195.372,142.645 195.372 C 142.372 195.372,142.149 195.509,142.149 195.677 C 142.149 195.845,141.740 196.421,141.240 196.957 C 139.916 198.377,138.112 200.992,138.457 200.992 C 138.620 200.992,139.182 200.362,139.707 199.591 C 140.736 198.081,141.934 196.628,142.951 195.657 C 143.302 195.322,143.488 194.948,143.364 194.824 C 143.241 194.701,143.140 194.774,143.140 194.986 M132.139 196.414 C 132.651 197.188,133.092 197.583,133.173 197.340 C 133.251 197.108,133.071 196.739,132.773 196.521 C 132.475 196.304,132.231 195.972,132.231 195.784 C 132.231 195.596,132.010 195.358,131.738 195.253 C 131.423 195.132,131.567 195.550,132.139 196.414 M170.877 196.777 C 169.437 198.542,168.783 199.196,166.469 201.193 C 165.755 201.810,165.315 202.314,165.492 202.314 C 165.669 202.314,166.477 201.730,167.287 201.015 C 169.478 199.084,169.971 198.591,171.232 197.080 C 171.864 196.322,172.580 195.702,172.822 195.702 C 173.064 195.702,173.170 195.554,173.058 195.372 C 172.689 194.775,172.311 195.019,170.877 196.777 M143.464 197.693 C 142.195 198.969,141.169 200.197,141.183 200.420 C 141.203 200.732,141.248 200.730,141.377 200.411 C 141.469 200.183,141.680 200.080,141.846 200.183 C 142.013 200.286,142.149 200.203,142.149 200.000 C 142.149 199.080,145.546 196.033,146.577 196.028 C 147.361 196.024,147.486 195.947,147.107 195.702 C 146.209 195.122,145.795 195.348,143.464 197.693 M129.928 196.612 C 129.944 196.992,130.784 198.017,131.079 198.017 C 131.224 198.017,131.096 197.744,130.794 197.411 C 130.493 197.078,130.346 196.706,130.468 196.585 C 130.589 196.463,130.515 196.364,130.303 196.364 C 130.091 196.364,129.922 196.475,129.928 196.612 M150.418 197.273 C 150.433 197.997,151.064 198.478,151.069 197.769 C 151.072 197.360,150.926 197.025,150.744 197.025 C 150.562 197.025,150.416 197.136,150.418 197.273 M131.240 198.564 C 131.240 198.752,131.537 199.175,131.901 199.504 C 132.264 199.833,132.562 199.999,132.562 199.872 C 132.562 199.745,132.264 199.322,131.901 198.932 C 131.537 198.542,131.240 198.376,131.240 198.564 M153.493 199.672 C 152.774 199.961,152.066 200.943,152.066 201.651 C 152.066 201.855,152.217 201.929,152.402 201.815 C 152.587 201.701,152.674 201.504,152.597 201.378 C 151.775 200.049,154.424 199.601,156.156 200.776 C 157.657 201.795,159.379 202.184,160.221 201.695 C 160.728 201.400,160.624 201.341,159.583 201.332 C 158.382 201.323,155.552 200.229,155.183 199.631 C 154.963 199.275,154.447 199.287,153.493 199.672 M132.562 200.481 C 132.562 200.825,134.045 202.967,134.286 202.971 C 134.567 202.976,133.290 200.741,132.859 200.475 C 132.696 200.374,132.562 200.377,132.562 200.481 M161.322 201.322 C 160.921 201.581,160.969 201.644,161.570 201.648 C 161.979 201.651,162.314 201.504,162.314 201.322 C 162.314 200.908,161.963 200.908,161.322 201.322 M137.371 202.944 C 137.080 203.507,136.971 203.967,137.129 203.967 C 137.464 203.967,138.278 202.300,138.053 202.075 C 137.969 201.991,137.662 202.382,137.371 202.944 M154.280 202.231 C 154.024 202.688,153.663 204.464,153.868 204.259 C 154.113 204.013,154.715 201.983,154.542 201.983 C 154.474 201.983,154.357 202.095,154.280 202.231 M163.606 203.003 C 162.953 203.357,161.539 203.775,160.465 203.932 C 158.731 204.185,158.752 204.449,160.496 204.327 C 161.720 204.242,163.967 203.553,163.967 203.263 C 163.967 203.105,164.190 202.975,164.463 202.975 C 164.736 202.975,164.959 202.826,164.959 202.645 C 164.959 202.243,165.050 202.219,163.606 203.003 M156.144 203.217 C 156.427 203.676,158.347 204.348,158.347 203.988 C 158.347 203.837,158.087 203.639,157.769 203.547 C 157.450 203.456,156.905 203.264,156.557 203.122 C 156.138 202.950,155.998 202.982,156.144 203.217 M139.340 204.294 C 139.220 204.837,138.985 205.367,138.818 205.470 C 138.410 205.722,138.428 206.281,138.843 206.281 C 139.025 206.281,139.150 206.169,139.120 206.033 C 139.068 205.793,139.675 204.162,140.029 203.589 C 140.126 203.433,140.059 203.306,139.880 203.306 C 139.702 203.306,139.459 203.750,139.340 204.294 M150.306 204.050 C 150.599 204.511,150.643 204.682,150.702 205.587 C 150.746 206.250,152.727 207.216,152.727 206.575 C 152.727 206.392,152.854 206.320,153.010 206.416 C 153.165 206.512,153.457 206.229,153.658 205.787 C 153.888 205.281,153.906 204.909,153.707 204.786 C 153.532 204.678,153.388 204.803,153.388 205.064 C 153.388 206.699,151.300 206.334,150.961 204.640 C 150.851 204.088,150.599 203.636,150.402 203.636 C 150.196 203.636,150.155 203.812,150.306 204.050 M135.952 206.679 C 135.935 207.698,135.957 207.720,136.287 207.014 C 136.525 206.504,136.531 206.151,136.304 205.924 C 136.078 205.698,135.964 205.942,135.952 206.679 M139.504 207.750 C 139.504 208.205,140.952 210.247,141.272 210.243 C 141.547 210.239,141.551 210.170,141.286 209.995 C 141.084 209.861,140.671 209.269,140.368 208.678 C 139.881 207.727,139.504 207.322,139.504 207.750 M134.963 209.827 C 134.363 211.540,133.892 213.281,133.440 215.455 C 133.354 215.864,133.407 216.124,133.556 216.032 C 133.705 215.940,133.933 215.233,134.063 214.461 C 134.193 213.689,134.649 211.952,135.078 210.600 C 136.004 207.678,135.918 207.099,134.963 209.827 M136.890 210.943 C 136.487 212.416,136.216 213.681,136.288 213.754 C 136.439 213.904,137.655 209.883,137.574 209.504 C 137.386 208.629,138.197 209.529,138.848 210.920 C 139.276 211.834,139.822 212.745,140.061 212.944 C 140.795 213.552,140.580 212.631,139.716 211.466 C 139.288 210.887,138.731 209.930,138.479 209.339 C 137.831 207.820,137.714 207.939,136.890 210.943 M141.828 211.818 C 141.823 212.227,141.934 212.562,142.075 212.562 C 142.216 212.562,142.625 213.230,142.984 214.046 C 143.562 215.361,144.140 215.989,144.128 215.289 C 144.116 214.571,141.837 211.132,141.828 211.818 M134.933 219.261 C 134.269 222.706,134.018 225.101,134.356 224.762 C 134.434 224.685,134.575 224.028,134.670 223.302 C 134.764 222.577,135.007 221.091,135.209 220.000 C 135.791 216.856,135.966 215.537,135.803 215.537 C 135.720 215.537,135.328 217.213,134.933 219.261 M144.137 216.116 C 144.148 216.658,144.773 217.319,145.023 217.053 C 145.170 216.897,145.102 216.702,144.874 216.621 C 144.646 216.539,144.543 216.336,144.646 216.170 C 144.748 216.004,144.675 215.868,144.482 215.868 C 144.290 215.868,144.135 215.979,144.137 216.116 M132.822 218.512 C 132.742 219.058,132.799 219.504,132.950 219.504 C 133.100 219.504,133.223 219.058,133.223 218.512 C 133.223 217.967,133.166 217.521,133.095 217.521 C 133.025 217.521,132.902 217.967,132.822 218.512 M132.449 221.405 C 132.301 221.647,131.975 224.046,131.753 226.532 C 131.692 227.215,131.756 227.844,131.895 227.930 C 132.034 228.016,132.161 227.406,132.178 226.575 C 132.211 224.956,132.487 222.679,132.766 221.736 C 132.938 221.155,132.733 220.941,132.449 221.405 M145.129 222.727 C 145.126 223.136,145.273 223.471,145.455 223.471 C 145.869 223.471,145.869 223.120,145.455 222.479 C 145.195 222.078,145.133 222.126,145.129 222.727 M147.712 234.050 C 147.643 234.777,147.686 235.372,147.808 235.372 C 147.930 235.372,148.086 234.777,148.156 234.050 C 148.225 233.322,148.182 232.727,148.060 232.727 C 147.938 232.727,147.781 233.322,147.712 234.050 M134.227 233.306 C 134.246 233.710,135.183 235.237,135.190 234.876 C 135.206 234.176,134.785 233.058,134.507 233.058 C 134.346 233.058,134.220 233.169,134.227 233.306 M149.925 235.007 C 149.804 235.559,149.336 236.554,148.885 237.218 C 147.925 238.634,148.003 239.088,148.980 237.765 C 149.711 236.774,150.578 234.435,150.312 234.169 C 150.221 234.077,150.046 234.454,149.925 235.007 M132.893 235.246 C 132.893 235.427,133.111 235.865,133.378 236.218 C 133.645 236.571,133.863 236.711,133.863 236.529 C 133.863 236.347,133.645 235.910,133.378 235.557 C 133.111 235.204,132.893 235.064,132.893 235.246 M147.107 236.008 C 147.107 236.176,146.698 236.803,146.198 237.402 L 145.289 238.491 146.176 237.841 C 147.135 237.136,147.977 235.702,147.431 235.702 C 147.253 235.702,147.107 235.840,147.107 236.008 M136.261 236.721 C 136.675 237.970,142.479 240.199,142.479 239.108 C 142.479 238.944,141.996 238.783,141.405 238.752 C 139.763 238.666,138.416 238.235,137.615 237.539 C 136.134 236.252,136.099 236.232,136.261 236.721 M135.372 238.853 C 135.917 239.300,136.504 239.667,136.676 239.668 C 136.847 239.669,136.484 239.298,135.868 238.843 C 134.430 237.782,134.074 237.790,135.372 238.853 M143.658 238.644 C 143.289 238.788,143.164 238.984,143.362 239.106 C 143.550 239.222,143.986 239.104,144.331 238.843 C 145.006 238.332,144.692 238.239,143.658 238.644 M145.868 239.863 C 145.277 240.121,144.793 240.399,144.793 240.480 C 144.793 240.724,146.764 239.958,146.962 239.637 C 147.183 239.280,147.214 239.274,145.868 239.863 " stroke="none" fill="#545454" fill-rule="evenodd"></path><path id="path4" d="M182.491 160.436 C 182.076 161.104,182.085 161.122,182.618 160.681 C 183.090 160.291,183.315 160.280,183.863 160.623 C 184.231 160.853,184.434 160.882,184.314 160.687 C 183.779 159.822,182.945 159.707,182.491 160.436 M163.640 167.898 C 163.165 168.031,162.969 168.222,163.178 168.351 C 163.376 168.473,163.821 168.360,164.166 168.099 C 164.857 167.576,164.832 167.567,163.640 167.898 M164.598 169.614 C 163.806 170.216,163.810 170.217,165.122 169.770 C 166.590 169.269,167.099 169.421,168.780 170.866 C 169.336 171.344,169.156 171.122,168.380 170.372 C 166.819 168.863,165.843 168.667,164.598 169.614 M161.204 171.640 C 161.092 172.056,161.014 172.694,161.029 173.058 C 161.045 173.421,161.194 173.139,161.361 172.429 C 161.683 171.056,161.545 170.364,161.204 171.640 M172.758 174.518 C 173.872 176.733,174.545 178.248,174.545 178.542 C 174.545 179.083,175.233 180.579,175.404 180.409 C 175.676 180.136,174.816 177.521,174.455 177.521 C 174.280 177.521,174.216 177.223,174.311 176.859 C 174.406 176.495,174.356 176.276,174.201 176.372 C 174.045 176.469,173.819 176.024,173.699 175.384 C 173.579 174.744,173.349 174.303,173.187 174.403 C 172.940 174.555,172.756 173.926,172.835 173.196 C 172.846 173.090,172.662 173.003,172.425 173.003 C 172.120 173.003,172.217 173.444,172.758 174.518 M170.909 173.845 C 170.909 174.074,171.132 174.485,171.405 174.758 C 172.039 175.392,172.031 174.911,171.394 174.069 C 171.122 173.709,170.909 173.610,170.909 173.845 M185.207 179.028 C 184.650 181.726,184.721 182.415,185.324 180.171 C 185.592 179.174,185.768 178.058,185.715 177.692 C 185.663 177.325,185.434 177.926,185.207 179.028 M197.355 181.144 C 197.810 181.525,198.479 181.992,198.843 182.180 C 199.294 182.415,199.242 182.304,198.678 181.831 C 198.223 181.450,197.554 180.984,197.190 180.795 C 196.739 180.561,196.791 180.672,197.355 181.144 M184.606 182.584 C 183.982 184.210,185.177 187.798,186.446 188.108 C 187.281 188.313,188.430 187.855,188.430 187.318 C 188.430 187.158,188.240 187.184,188.008 187.377 C 187.627 187.693,185.883 187.710,185.680 187.400 C 185.270 186.772,184.846 184.692,184.896 183.554 C 184.961 182.091,184.888 181.847,184.606 182.584 M123.014 182.788 C 122.968 183.351,124.223 186.031,124.658 186.300 C 124.825 186.403,124.600 185.806,124.157 184.973 C 123.714 184.141,123.285 183.202,123.202 182.887 C 123.104 182.512,123.039 182.478,123.014 182.788 M196.529 182.981 C 196.893 183.277,197.488 183.666,197.851 183.844 L 198.512 184.169 197.851 183.630 C 197.488 183.334,196.893 182.946,196.529 182.767 L 195.868 182.443 196.529 182.981 M201.468 183.618 C 201.821 183.901,202.342 184.120,202.625 184.106 C 203.070 184.084,203.073 184.055,202.645 183.896 C 202.372 183.795,201.851 183.575,201.488 183.408 C 200.837 183.109,200.837 183.112,201.468 183.618 M163.330 184.391 C 163.303 185.231,164.215 187.630,164.466 187.380 C 164.554 187.292,164.340 186.413,163.990 185.428 C 163.597 184.321,163.345 183.924,163.330 184.391 M198.678 184.261 C 198.678 184.489,201.009 185.878,201.152 185.735 C 201.221 185.666,200.693 185.272,199.978 184.861 C 199.263 184.449,198.678 184.179,198.678 184.261 M207.037 185.025 C 206.631 185.446,206.485 185.785,206.709 185.785 C 207.079 185.785,208.119 184.487,207.874 184.331 C 207.816 184.294,207.439 184.606,207.037 185.025 M173.630 185.455 C 173.630 186.091,173.698 186.351,173.782 186.033 C 173.865 185.715,173.865 185.194,173.782 184.876 C 173.698 184.558,173.630 184.818,173.630 185.455 M175.283 185.785 C 175.283 186.421,175.351 186.682,175.434 186.364 C 175.518 186.045,175.518 185.525,175.434 185.207 C 175.351 184.888,175.283 185.149,175.283 185.785 M161.983 187.127 C 161.983 187.319,162.115 187.396,162.276 187.296 C 162.438 187.196,162.655 187.441,162.759 187.841 C 162.864 188.240,163.041 188.474,163.154 188.361 C 163.423 188.093,162.715 186.777,162.302 186.777 C 162.127 186.777,161.983 186.934,161.983 187.127 M182.137 187.686 C 181.888 188.186,181.632 188.705,181.569 188.839 C 181.505 188.973,181.683 188.995,181.964 188.887 C 182.246 188.779,182.389 188.551,182.284 188.381 C 182.178 188.210,182.275 187.850,182.498 187.581 C 182.721 187.312,182.834 187.021,182.747 186.935 C 182.661 186.848,182.387 187.187,182.137 187.686 M166.364 192.615 C 166.683 192.979,166.876 193.344,166.793 193.427 C 166.711 193.510,166.933 193.577,167.288 193.577 C 168.090 193.577,168.129 193.654,166.860 192.733 C 165.987 192.100,165.894 192.078,166.364 192.615 M145.702 193.313 C 144.641 193.540,145.107 193.919,146.281 193.782 C 146.917 193.707,147.438 193.606,147.438 193.556 C 147.438 193.362,146.251 193.195,145.702 193.313 M174.888 194.514 C 173.853 194.887,173.813 194.946,174.475 195.119 C 174.877 195.224,175.207 195.198,175.207 195.061 C 175.207 194.924,175.541 194.650,175.950 194.453 C 176.959 193.966,176.299 194.004,174.888 194.514 M148.762 194.604 C 148.765 195.063,150.389 196.887,150.401 196.446 C 150.408 196.219,150.264 196.033,150.083 196.033 C 149.901 196.033,149.752 195.874,149.752 195.679 C 149.752 195.484,149.529 195.102,149.256 194.829 C 148.983 194.556,148.761 194.455,148.762 194.604 M146.694 195.445 C 147.103 195.642,147.438 196.013,147.438 196.268 C 147.438 196.524,147.587 196.641,147.769 196.529 C 147.950 196.417,148.099 196.493,148.099 196.698 C 148.099 196.904,148.322 197.295,148.595 197.568 C 148.868 197.841,149.091 197.915,149.091 197.733 C 149.091 197.207,146.911 195.039,146.407 195.064 C 146.156 195.076,146.285 195.247,146.694 195.445 M143.999 196.735 C 143.147 197.485,142.505 198.152,142.571 198.218 C 142.637 198.284,143.408 197.671,144.284 196.855 C 146.282 194.994,146.076 194.907,143.999 196.735 M167.049 198.024 C 166.108 198.929,165.445 199.669,165.574 199.669 C 165.704 199.669,166.543 198.926,167.438 198.017 C 169.540 195.882,169.270 195.887,167.049 198.024 M133.670 199.044 C 134.243 199.912,134.770 200.453,134.843 200.245 C 134.916 200.038,134.804 199.811,134.595 199.741 C 134.386 199.671,134.215 199.320,134.215 198.961 C 134.215 198.602,134.066 198.400,133.884 198.512 C 133.702 198.625,133.554 198.435,133.554 198.091 C 133.554 197.747,133.346 197.466,133.092 197.466 C 132.777 197.466,132.961 197.968,133.670 199.044 M150.967 198.264 C 150.821 198.513,151.279 200.000,151.502 200.000 C 151.568 200.000,151.556 199.554,151.475 199.008 C 151.326 197.988,151.221 197.834,150.967 198.264 M149.196 199.174 C 149.768 201.286,150.548 203.612,150.651 203.509 C 150.839 203.320,149.674 199.210,149.328 198.843 C 149.129 198.632,149.081 198.751,149.196 199.174 M139.124 200.317 C 138.651 200.855,138.346 201.376,138.444 201.474 C 138.542 201.572,138.440 201.653,138.217 201.653 C 137.995 201.653,137.902 201.799,138.012 201.977 C 138.235 202.338,137.621 203.668,137.058 204.045 C 136.810 204.210,136.832 204.289,137.126 204.292 C 137.364 204.295,137.867 203.591,138.245 202.727 C 138.624 201.864,139.221 200.748,139.572 200.248 C 140.407 199.058,140.200 199.090,139.124 200.317 M135.245 200.858 C 135.196 201.324,136.145 203.234,136.550 203.484 C 136.720 203.589,136.860 203.518,136.860 203.325 C 136.860 203.133,136.711 202.975,136.529 202.975 C 136.347 202.975,136.198 202.678,136.198 202.314 C 136.198 201.950,136.060 201.653,135.892 201.653 C 135.724 201.653,135.518 201.393,135.434 201.074 C 135.351 200.756,135.266 200.659,135.245 200.858 M162.466 201.014 C 162.106 201.596,162.485 201.678,163.165 201.164 C 163.724 200.741,163.733 200.681,163.243 200.672 C 162.935 200.666,162.586 200.820,162.466 201.014 M160.285 201.688 C 159.979 201.882,160.179 201.975,160.909 201.978 C 161.500 201.981,161.983 201.926,161.983 201.857 C 161.983 201.556,160.695 201.428,160.285 201.688 M135.292 204.562 C 135.321 204.946,135.414 205.192,135.499 205.107 C 135.584 205.023,135.923 205.364,136.254 205.865 C 136.585 206.367,136.856 206.657,136.857 206.511 C 136.859 206.365,136.495 205.710,136.050 205.054 C 135.413 204.117,135.251 204.012,135.292 204.562 M135.842 208.221 C 135.620 208.960,135.314 209.488,135.161 209.393 C 135.009 209.299,134.972 209.453,135.080 209.735 C 135.189 210.017,135.322 210.248,135.376 210.248 C 135.562 210.248,136.527 207.161,136.386 207.019 C 136.308 206.941,136.063 207.482,135.842 208.221 M138.845 210.110 C 138.846 210.277,139.230 210.860,139.698 211.405 L 140.551 212.397 139.804 211.240 C 138.846 209.755,138.843 209.752,138.845 210.110 M135.801 213.718 C 135.368 215.276,135.363 215.537,135.766 215.537 C 136.025 215.537,136.148 215.392,136.038 215.214 C 135.928 215.037,136.003 214.278,136.205 213.528 C 136.407 212.778,136.513 212.105,136.440 212.032 C 136.367 211.959,136.080 212.718,135.801 213.718 M135.060 217.043 C 134.935 217.707,134.900 218.315,134.980 218.396 C 135.061 218.477,135.229 218.000,135.354 217.337 C 135.478 216.674,135.514 216.065,135.433 215.984 C 135.352 215.903,135.184 216.380,135.060 217.043 M144.143 216.753 C 144.161 217.218,145.124 218.335,145.124 217.891 C 145.124 217.661,144.901 217.250,144.628 216.978 C 144.355 216.705,144.137 216.604,144.143 216.753 M133.851 223.719 C 133.833 224.401,133.754 225.769,133.675 226.760 C 133.597 227.750,133.627 228.467,133.742 228.352 C 134.003 228.091,134.311 222.479,134.064 222.479 C 133.965 222.479,133.869 223.037,133.851 223.719 M147.134 222.852 C 147.119 223.148,147.331 223.575,147.603 223.802 C 147.876 224.028,148.099 224.409,148.099 224.649 C 148.099 224.889,148.264 225.187,148.465 225.311 C 148.968 225.622,148.469 224.079,147.924 223.638 C 147.698 223.455,147.434 223.083,147.337 222.810 C 147.189 222.396,147.155 222.404,147.134 222.852 M146.533 226.281 C 146.728 226.917,147.004 227.438,147.146 227.438 C 147.453 227.438,146.829 225.526,146.445 225.288 C 146.298 225.197,146.337 225.644,146.533 226.281 M147.216 228.461 C 147.333 228.898,147.431 229.368,147.434 229.504 C 147.436 229.640,147.566 229.752,147.723 229.752 C 148.104 229.752,147.782 228.146,147.346 227.877 C 147.126 227.741,147.079 227.949,147.216 228.461 M133.999 232.180 C 134.027 232.663,134.161 233.057,134.298 233.058 C 134.633 233.058,134.602 232.337,134.242 231.768 C 134.031 231.436,133.962 231.553,133.999 232.180 M148.176 234.050 C 148.176 234.686,148.244 234.946,148.327 234.628 C 148.410 234.310,148.410 233.789,148.327 233.471 C 148.244 233.153,148.176 233.413,148.176 234.050 M134.243 233.884 C 134.179 235.121,137.738 239.008,138.933 239.008 C 139.137 239.008,138.604 238.565,137.751 238.024 C 136.897 237.482,136.198 236.804,136.198 236.517 C 136.198 236.229,136.050 236.086,135.868 236.198 C 135.686 236.311,135.537 236.096,135.537 235.722 C 135.537 235.348,135.411 235.041,135.257 235.041 C 135.103 235.041,134.816 234.707,134.618 234.298 C 134.421 233.888,134.252 233.702,134.243 233.884 " stroke="none" fill="#373737" fill-rule="evenodd"></path></g></svg>